<?xml version="1.0" standalone="no"?>
<!DOCTYPE svg PUBLIC "-//W3C//DTD SVG 20010904//EN"
 "http://www.w3.org/TR/2001/REC-SVG-20010904/DTD/svg10.dtd">
<svg version="1.0" xmlns="http://www.w3.org/2000/svg"
 width="87.000000pt" height="44.000000pt" viewBox="0 0 87.000000 44.000000"
 preserveAspectRatio="xMidYMid meet">

<g transform="translate(0.000000,44.000000) scale(0.100000,-0.100000)"
fill="#ffffff" stroke="none">
<path d="M128 391 c-69 -53 -70 -59 -4 -17 57 36 59 37 79 19 19 -18 20 -18 6
4 -20 34 -30 33 -81 -6z"/>
<path d="M242 290 c0 -14 2 -19 5 -12 2 6 2 18 0 25 -3 6 -5 1 -5 -13z"/>
<path d="M11 254 c0 -11 3 -14 6 -6 3 7 2 16 -1 19 -3 4 -6 -2 -5 -13z"/>
<path d="M210 220 c-14 -14 -35 -31 -45 -38 -11 -7 -7 -6 10 2 29 14 72 53 64
59 -2 1 -15 -9 -29 -23z"/>
<path d="M15 186 c5 -50 30 -75 85 -87 58 -13 64 -3 7 12 -52 13 -76 34 -88
81 -8 32 -8 32 -4 -6z"/>
<path d="M40 189 c0 -17 35 -59 50 -59 4 0 17 -2 27 -6 10 -3 2 3 -17 13 -19
10 -40 29 -47 43 -8 15 -13 19 -13 9z"/>
<path d="M170 40 c-8 -5 -11 -12 -7 -16 4 -4 13 -2 19 4 15 15 7 24 -12 12z"/>
</g>
</svg>
